<svg viewBox="0 0 418 80" fill="none" xmlns="http://www.w3.org/2000/svg">
<g clip-path="url(#clip0_2249_253)">
<path d="M402.806 69.0428C394.969 69.0428 389.008 62.8059 389.008 54.8028C389.008 46.7997 394.969 40.5628 402.806 40.5628C406.504 40.5628 409.65 41.9979 411.692 44.4816V30.4072H417.819V68.4909H411.968V64.8481C409.981 67.4974 406.67 69.0428 402.806 69.0428ZM403.468 63.2475C408.27 63.2475 411.748 59.7151 411.748 54.8028C411.748 49.8906 408.27 46.303 403.468 46.303C398.667 46.303 395.134 49.8906 395.134 54.8028C395.134 59.7151 398.667 63.2475 403.468 63.2475Z" fill="currentColor"/>
<path d="M382.166 36.8097C380.123 36.8097 378.633 35.3194 378.633 33.3325C378.633 31.2903 380.123 29.8 382.166 29.8C384.208 29.8 385.698 31.2903 385.698 33.3325C385.698 35.3194 384.208 36.8097 382.166 36.8097ZM385.201 68.4909H379.075V41.1148H385.201V68.4909Z" fill="currentColor"/>
<path d="M361.843 69.0428C353.674 69.0428 347.437 62.8059 347.437 54.8028C347.437 46.7997 353.674 40.5628 361.843 40.5628C368.577 40.5628 373.158 44.7024 374.869 49.0627L369.128 51.2704C368.025 48.4003 365.21 46.303 361.843 46.303C357.041 46.303 353.564 50.001 353.564 54.8028C353.564 59.6047 357.096 63.3027 361.843 63.3027C365.265 63.3027 368.025 61.2605 369.128 58.3904L374.869 60.543C373.158 64.9585 368.577 69.0428 361.843 69.0428Z" fill="currentColor"/>
<path d="M328.411 69.0428C320.573 69.0428 314.612 62.8059 314.612 54.8028C314.612 46.7997 320.573 40.5628 328.411 40.5628C332.274 40.5628 335.531 42.1083 337.573 44.7576V41.1148H343.423V68.4909H337.573V64.8481C335.586 67.4974 332.274 69.0428 328.411 69.0428ZM329.073 63.2475C333.875 63.2475 337.352 59.7151 337.352 54.8028C337.352 49.8906 333.875 46.303 329.073 46.303C324.271 46.303 320.739 49.8906 320.739 54.8028C320.739 59.7151 324.271 63.2475 329.073 63.2475Z" fill="currentColor"/>
<path d="M279.496 68.4909H273.37V41.1148H279.22V43.9296C280.987 41.8323 283.801 40.5628 287.279 40.5628C294.012 40.5628 298.814 45.3647 298.814 52.9262V68.4909H292.688V53.4782C292.688 49.0075 290.259 46.3582 286.285 46.3582C282.201 46.3582 279.496 49.1179 279.496 53.4782V68.4909Z" fill="currentColor"/>
<path d="M255.681 69.0428C247.568 69.0428 241.221 62.8059 241.221 54.8028C241.221 46.7997 247.568 40.5628 255.681 40.5628C263.74 40.5628 270.087 46.7997 270.087 54.8028C270.087 62.8059 263.74 69.0428 255.681 69.0428ZM255.681 63.3027C260.483 63.3027 263.96 59.7151 263.96 54.8028C263.96 49.8906 260.483 46.303 255.681 46.303C250.879 46.303 247.347 49.8906 247.347 54.8028C247.347 59.7151 250.879 63.3027 255.681 63.3027Z" fill="currentColor"/>
<path d="M225.078 68.4909H218.951V30.4072H225.078V68.4909Z" fill="currentColor"/>
<path d="M208.937 36.8097C206.895 36.8097 205.405 35.3194 205.405 33.3325C205.405 31.2903 206.895 29.8 208.937 29.8C210.979 29.8 212.469 31.2903 212.469 33.3325C212.469 35.3194 210.979 36.8097 208.937 36.8097ZM211.973 68.4909H205.846V41.1148H211.973V68.4909Z" fill="currentColor"/>
<path d="M183.647 69.0428C175.81 69.0428 169.849 62.8059 169.849 54.8028C169.849 46.7997 175.81 40.5628 183.647 40.5628C187.511 40.5628 190.767 42.1083 192.809 44.7576V41.1148H198.66V68.4909H192.809V64.8481C190.822 67.4974 187.511 69.0428 183.647 69.0428ZM184.31 63.2475C189.111 63.2475 192.589 59.7151 192.589 54.8028C192.589 49.8906 189.111 46.303 184.31 46.303C179.508 46.303 175.975 49.8906 175.975 54.8028C175.975 59.7151 179.508 63.2475 184.31 63.2475Z" fill="currentColor"/>
<path d="M128.588 68.4909H122.462V41.1148H128.313V43.8193C130.079 41.7219 132.838 40.5628 136.095 40.5628C140.014 40.5628 143.16 42.1635 144.981 45.2543C147.078 42.329 150.611 40.5628 154.695 40.5628C161.429 40.5628 166.12 45.3095 166.12 52.7607V68.4909H159.994V53.3126C159.994 48.9523 157.62 46.3582 153.702 46.3582C149.893 46.3582 147.354 49.0627 147.354 53.3126V68.4909H141.228V53.3126C141.228 48.9523 138.855 46.3582 134.991 46.3582C131.127 46.3582 128.588 49.0627 128.588 53.3126V68.4909Z" fill="currentColor"/>
<path d="M104.585 69.0428C96.5265 69.0428 90.4 62.7507 90.4 54.8028C90.4 46.7997 96.5265 40.5628 104.309 40.5628C112.312 40.5628 117.997 46.5238 117.997 54.6372C117.997 55.2996 117.997 56.0171 117.887 56.6794H96.4713C97.1888 61.1501 100.28 63.689 104.585 63.689C107.896 63.689 110.435 62.0332 111.87 59.5495L116.948 62.4196C114.189 66.5591 109.883 69.0428 104.585 69.0428ZM104.254 45.8614C100.445 45.8614 97.52 48.2348 96.6369 52.2087H111.815C111.263 48.5107 108.393 45.8614 104.254 45.8614Z" fill="currentColor"/>
<path d="M154.934 8.16625C156.072 7.38603 157.413 6.95905 158.792 6.93602C163.378 6.93602 166.567 10.0677 166.567 14.7091V23.5527H162.378V15.1038C162.378 12.5297 160.813 11.0199 158.688 11.0199C156.395 11.0199 154.995 12.6495 154.995 15.1038V23.5481H150.789V2.40672L154.935 0V8.16625H154.934Z" fill="currentColor"/>
<path d="M99.0111 13.4961C99.2922 13.5637 99.5886 13.6328 99.8927 13.7096C102.969 14.4914 105.319 15.5542 105.321 18.6321C105.321 21.8206 102.189 24 98.2724 24C95.0286 23.9954 92.5666 23.103 91 20.5289L94.6938 18.4048C95.4202 19.8593 96.6489 20.5873 98.3845 20.5842C100.013 20.5842 101.014 19.8577 101.014 18.7949C101.014 17.7321 99.6178 17.3988 97.2095 16.8935C93.9089 16.1655 91.7848 14.8247 91.7848 12.0278C91.7848 9.00217 94.8612 6.93642 98.2724 6.93642C101.181 6.93642 103.193 7.72125 104.983 9.96209L101.459 11.9772C100.79 10.8145 99.7806 10.2432 98.3277 10.2432C96.8747 10.2432 95.9793 10.9143 95.9793 11.8097C95.9793 12.7743 97.231 13.0722 99.0111 13.4977V13.4961Z" fill="currentColor"/>
<path d="M107.558 23.5531L111.698 23.5485V6.93642L107.558 9.35849V23.5531Z" fill="currentColor"/>
<path d="M122.492 6.93642C117.904 6.93642 114.605 10.3507 114.605 14.8262V23.5546L118.806 23.55V15.1057C118.806 12.6514 120.205 11.0218 122.499 11.0218C124.624 11.0218 126.19 12.5316 126.19 15.1057V23.55H130.38V14.8262C130.38 10.5734 127.147 6.93642 122.493 6.93642H122.492Z" fill="currentColor"/>
<path d="M136.854 15.4385C136.854 18.0126 138.588 19.9693 141.162 19.9693C142.841 19.9693 144.294 19.1292 144.965 17.7315L148.544 19.8034C147.806 21.092 146.739 22.1594 145.452 22.8951C144.163 23.6308 142.703 24.0102 141.219 23.9917C136.252 23.9964 132.609 20.4162 132.609 15.44C132.609 10.4638 136.187 6.93738 141.219 6.93738C144.349 6.93738 147.146 8.56541 148.487 11.0766L144.908 13.2038C144.556 12.5157 144.019 11.9428 143.357 11.5465C142.693 11.1503 141.933 10.9491 141.162 10.9644C138.7 10.9644 136.854 12.809 136.854 15.4385Z" fill="currentColor"/>
<path d="M0 15.3998C0 7.44745 6.44769 0.999756 14.4 0.999756H57.6C65.5523 0.999756 72 7.44745 72 15.3998V58.5998C72 66.5521 65.5523 72.9998 57.6 72.9998H14.4C6.44769 72.9998 0 66.5521 0 58.5998V15.3998Z" fill="#F04126"/>
<path d="M62.082 32.4583C60.84 30.6928 59.1106 29.369 57.0841 28.6348C55.7808 28.1475 54.4146 27.9069 53.0232 27.9211C50.6005 27.9368 48.0316 28.6962 45.5995 30.119L23.9808 42.7748C20.6164 44.7431 18.1151 44.479 16.6011 43.9067C15.4896 43.5106 14.5448 42.7921 13.864 41.8315C13.1817 40.8693 12.817 39.739 12.8123 38.5614C12.806 37.3823 13.155 36.2472 13.8263 35.2788C14.496 34.3087 15.4346 33.5808 16.5477 33.1674C18.0475 32.581 20.5441 32.287 23.9305 34.2128L26.3658 35.6058C26.2243 36.0947 26.119 36.5978 26.0529 37.1009L25.9272 38.0536L44.3701 27.407L44.4078 27.3834C44.9015 27.0344 45.2426 26.5156 45.37 25.926C45.4973 25.3349 45.3999 24.7218 45.0933 24.2014C44.7883 23.681 44.3009 23.2958 43.7208 23.1182C43.1422 22.9405 42.5244 22.9861 41.9788 23.2471L41.9616 23.2549L35.9921 26.7215L29.911 23.2439L29.8764 23.2266C29.3246 22.9688 28.702 22.9295 28.1235 23.115C27.5449 23.3005 27.0607 23.6936 26.7604 24.2234C26.4601 24.7532 26.3721 25.3711 26.5136 25.9622C26.6535 26.5533 27.0088 27.0674 27.5135 27.407L31.2237 29.509L30.7144 29.8092L30.7034 29.8155C29.9817 30.273 29.3214 30.8201 28.7366 31.4411L26.3013 30.0372C22.3757 27.8016 18.2865 27.3221 14.79 28.6883C13.3326 29.2511 11.9916 30.1457 10.9131 31.2776C9.83459 32.408 9.00292 33.7899 8.50927 35.2772C7.67288 37.8838 7.87097 40.6744 9.0721 43.1348C10.2732 45.5952 12.35 47.4708 14.9174 48.4141C16.2223 48.9015 17.5916 49.142 18.9798 49.1279C21.4009 49.1121 23.9683 48.3512 26.4035 46.9269L26.4413 46.9033L48.0112 34.2726C51.374 32.3058 53.8769 32.5699 55.394 33.1406C56.504 33.5352 57.4504 34.2506 58.1327 35.2112C58.8135 36.1733 59.1735 37.3053 59.1766 38.4844C59.1782 39.1054 59.0839 39.7217 58.8984 40.3049C58.6248 41.113 58.1689 41.8661 57.5762 42.4792C56.9851 43.0939 56.2509 43.5797 55.4506 43.8847C53.9508 44.4696 51.4511 44.762 48.0647 42.8377L45.6294 41.4448C45.785 40.9102 45.8951 40.3631 45.9611 39.8129L46.0743 38.868L31.7095 47.279V52.8382L41.284 47.2476L41.2997 47.2381C42.0182 46.7806 42.6785 46.2335 43.2617 45.6125L45.6986 47.0165C49.6399 49.2442 53.7291 49.7221 57.2052 48.3654C59.2269 47.606 60.939 46.2634 62.1606 44.4822C63.3806 42.7025 64.0157 40.6194 63.9969 38.4624H64C63.9874 36.3007 63.3271 34.2254 62.0851 32.4599L62.082 32.4583Z" fill="white"/>
</g>
<defs>
<clipPath id="clip0_2249_253">
<rect width="418" height="80" fill="white"/>
</clipPath>
</defs>
</svg>
