<?xml version="1.0" encoding="UTF-8"?>
<svg version="1.1" xmlns="http://www.w3.org/2000/svg" width="137" height="137">
<path d="M0 0 C0.226875 0.721875 0.45375 1.44375 0.6875 2.1875 C1.85370145 5.15014009 1.85370145 5.15014009 4.4375 7.25 C7.05668571 10.06083344 7.39581061 11.01209378 8.25 14.5625 C9.07714518 17.44324702 9.43611908 18.64675164 12.0078125 20.2578125 C13.59540335 20.88132178 15.19077637 21.48534404 16.79296875 22.0703125 C22.23685996 24.36349145 24.39894316 29.67969953 27 34.625 C29.16740829 38.69441966 30.84579515 41.71518733 35 44 C38.18762109 44.79690838 38.18762109 44.79690838 41 45 C40.56519906 50.65241217 38.35577361 55.47739405 35 60 C31.69811835 62.30619228 28.45102178 62.34954355 24.5 62.5625 C20.19936387 62.75807202 20.19936387 62.75807202 15.984375 63.5234375 C13.23467717 64.183798 10.57570062 64.03950011 7.75 64.0625 C-0.15381237 64.52743014 -5.95092602 67.49830878 -12.796875 71.28515625 C-16 73 -16 73 -18 73 C-21.49917115 84.22067548 -24.90262192 97.29587936 -22 109 C-21.01 110.485 -21.01 110.485 -20 112 C-20 112.99 -20 113.98 -20 115 C-22.22890995 116.11445498 -23.53055106 116.16480286 -26 116.1875 C-27.051875 116.20876953 -27.051875 116.20876953 -28.125 116.23046875 C-30 116 -30 116 -32 114 C-32 113.01 -32 112.02 -32 111 C-32.66 111 -33.32 111 -34 111 C-34.33 112.65 -34.66 114.3 -35 116 C-41.46850394 115.38976378 -41.46850394 115.38976378 -43.875 113.625 C-45.81339801 110.82509176 -46.13751228 108.30324304 -46.125 105 C-46.12757812 104.319375 -46.13015625 103.63875 -46.1328125 102.9375 C-46 101 -46 101 -45 98 C-44.62166112 94.23882058 -44.48718406 90.4630048 -44.3125 86.6875 C-44.25255859 85.65431641 -44.19261719 84.62113281 -44.13085938 83.55664062 C-43.88271531 78.25723512 -43.77524139 73.952432 -46 69 C-46.92554688 68.90203125 -47.85109375 68.8040625 -48.8046875 68.703125 C-62.30292765 67.20044184 -75.53047197 65.07223508 -89 63 C-89 44.52 -89 26.04 -89 7 C-70.38688613 7 -70.38688613 7 -61.0625 8.625 C-60.01980957 8.79813721 -58.97711914 8.97127441 -57.90283203 9.1496582 C-47.91416052 10.87815084 -38.09646295 13.24413944 -28.2734375 15.73046875 C-24.18615208 16.75265232 -20.18356001 17.5136758 -16 18 C-15.979375 17.175 -15.95875 16.35 -15.9375 15.5 C-14.22715246 9.11470251 -7.01323546 0 0 0 Z " fill="#952225" transform="translate(89,12)"/>
</svg>
