<?xml version="1.0" encoding="UTF-8"?>
<svg version="1.1" xmlns="http://www.w3.org/2000/svg" width="225" height="225">
<path d="M0 0 C74.25 0 148.5 0 225 0 C225 74.25 225 148.5 225 225 C150.75 225 76.5 225 0 225 C0 150.75 0 76.5 0 0 Z " fill="#1751DA" transform="translate(0,0)"/>
<path d="M0 0 C68.44965278 0 68.44965278 0 78.28515625 8.234375 C85.60478885 15.7707621 88.39226889 23.93667889 88.3125 34.3125 C88.30831055 35.05798096 88.30412109 35.80346191 88.29980469 36.5715332 C88.0837989 47.15466777 85.16030575 55.17012833 77.4375 62.625 C69.57283934 69.11008629 60.80359458 70.60773146 50.86328125 70.390625 C49.52348206 70.38458252 49.52348206 70.38458252 48.15661621 70.37841797 C44.87502995 70.35776238 41.5937405 70.30192091 38.3125 70.25 C30.949375 70.1675 23.58625 70.085 16 70 C16 85.84 16 101.68 16 118 C10.72 118 5.44 118 0 118 C0 79.06 0 40.12 0 0 Z " fill="#FAFBFE" transform="translate(70,53)"/>
<path d="M0 0 C6.414375 -0.0825 12.82875 -0.165 19.4375 -0.25 C21.44384521 -0.28641602 23.45019043 -0.32283203 25.51733398 -0.36035156 C27.13524308 -0.37205091 28.75316409 -0.38223977 30.37109375 -0.390625 C31.59753601 -0.4213208 31.59753601 -0.4213208 32.84875488 -0.45263672 C39.75936691 -0.45675569 45.80227837 1.30626711 51.15625 5.81640625 C51.5996875 6.39261719 52.043125 6.96882813 52.5 7.5625 C52.9640625 8.14128906 53.428125 8.72007813 53.90625 9.31640625 C57.51916387 14.87771296 56.71481062 23.18969595 55.5390625 29.45703125 C53.9744244 34.27059434 51.34430153 37.51546411 47 40 C40.92050535 42.64568644 35.38588859 43.42331722 28.80859375 43.29296875 C27.70167175 43.28843689 27.70167175 43.28843689 26.5723877 43.28381348 C23.86061268 43.26831921 21.14903971 43.22643811 18.4375 43.1875 C12.353125 43.125625 6.26875 43.06375 0 43 C0 28.81 0 14.62 0 0 Z " fill="#1852DB" transform="translate(86,67)"/>
</svg>
